<svg width="26" height="26" viewBox="0 0 26 26" fill="none" xmlns="http://www.w3.org/2000/svg">
<path d="M1.73333 10.834H4.33333V19.5003H2.6C2.37015 19.5003 2.14971 19.6144 1.98717 19.8176C1.82464 20.0207 1.73333 20.2963 1.73333 20.5836C1.73333 20.8709 1.82464 21.1464 1.98717 21.3496C2.14971 21.5527 2.37015 21.6669 2.6 21.6669H23.4C23.6299 21.6669 23.8503 21.5527 24.0128 21.3496C24.1754 21.1464 24.2667 20.8709 24.2667 20.5836C24.2667 20.2963 24.1754 20.0207 24.0128 19.8176C23.8503 19.6144 23.6299 19.5003 23.4 19.5003H21.6667V10.834H24.2667C24.455 10.8336 24.6381 10.7565 24.7883 10.6144C24.9384 10.4723 25.0475 10.273 25.0989 10.0465C25.1503 9.82003 25.1413 9.5788 25.0732 9.35929C25.0052 9.13979 24.8818 8.95398 24.7217 8.82997L13.455 0.163706C13.3187 0.0567403 13.161 0 13 0C12.839 0 12.6813 0.0567403 12.545 0.163706L1.27833 8.82997C1.11825 8.95398 0.994836 9.13979 0.926777 9.35929C0.858718 9.5788 0.849715 9.82003 0.901131 10.0465C0.952548 10.273 1.06158 10.4723 1.21174 10.6144C1.3619 10.7565 1.545 10.8336 1.73333 10.834ZM6.06667 10.834H9.53333V19.5003H6.06667V10.834ZM14.7333 10.834V19.5003H11.2667V10.834H14.7333ZM19.9333 19.5003H16.4667V10.834H19.9333V19.5003ZM13 2.35735L21.2008 8.66748H4.79917L13 2.35735ZM26 24.9167C26 25.204 25.9087 25.4796 25.7462 25.6827C25.5836 25.8859 25.3632 26 25.1333 26H0.866667C0.636812 26 0.416372 25.8859 0.253841 25.6827C0.0913092 25.4796 0 25.204 0 24.9167C0 24.6294 0.0913092 24.3539 0.253841 24.1507C0.416372 23.9476 0.636812 23.8334 0.866667 23.8334H25.1333C25.3632 23.8334 25.5836 23.9476 25.7462 24.1507C25.9087 24.3539 26 24.6294 26 24.9167Z" fill="black"/>
</svg>
