<?xml version="1.0" encoding="utf-8"?>
<!-- Generator: Adobe Illustrator 25.2.1, SVG Export Plug-In . SVG Version: 6.00 Build 0)  -->
<svg version="1.1" id="Layer_1" xmlns="http://www.w3.org/2000/svg" xmlns:xlink="http://www.w3.org/1999/xlink" x="0px" y="0px"
	 viewBox="0 0 256 256" style="enable-background:new 0 0 256 256;" xml:space="preserve">
<g>
	<path d="M56,15.4c48.5,0,96.9,0,145.4,0c2.8,0.8,5.7,1.6,8.2,3.1C218.8,24,223,32.3,223,42.9c0,56.2,0,112.5,0,168.7
		c0,2.2-0.1,4.4-0.3,6.6c-1.3,12.6-12.5,22.9-25.2,22.9c-45.9,0-91.8,0-137.6,0c-3.5,0-6.9-0.8-10-2.3c-10.3-5-15.3-13.4-15.5-24.6
		c-0.2-13.1,0-26.1,0-39.2c0-44.2,0-88.4,0-132.6c0-10.2,4.2-18.3,13-23.7C50,17.1,53,16.3,56,15.4z M128.6,90.3
		C128.6,90.3,128.6,90.3,128.6,90.3c16.6,0,33.2,0.1,49.8,0c8.8-0.1,15.7-7.1,15.8-15.9c0-4.8,0-9.5,0-14.3c-0.1-4.9-2-8.9-5.7-12.2
		c-3.4-3-7.5-4-11.8-4c-15.4,0-30.8,0-46.3,0c-16.7,0-33.3,0-50,0c-8.9,0-15.7,5.2-16.9,13.6c-0.9,6.4-0.9,12.9,0,19.3
		c1.2,8.2,7.6,13.4,16,13.5C95.9,90.3,112.2,90.3,128.6,90.3z M79.7,166.2c-3.2,0-5.3,1.3-6.5,3.9c-1.2,2.7-0.8,5.2,1.2,7.4
		c1.8,2,3.8,3.9,5.7,5.8c1,1,1,1.8,0,2.7c-1.8,1.7-3.6,3.5-5.3,5.3c-2.9,3-3,7.1-0.3,9.9c2.7,2.7,6.8,2.6,9.9-0.3
		c1.8-1.7,3.6-3.5,5.3-5.3c1-1.1,1.8-1,2.7,0c1.7,1.8,3.5,3.6,5.3,5.3c3,2.9,7.2,3,9.9,0.3c2.7-2.7,2.6-6.8-0.3-9.8
		c-1.7-1.8-3.5-3.6-5.3-5.3c-1-1-1-1.8,0-2.8c1.9-1.8,3.7-3.6,5.4-5.5c2.8-3,2.8-7,0.1-9.7c-2.6-2.6-6.9-2.5-9.7,0.2
		c-1.9,1.8-3.7,3.6-5.5,5.4c-1,1-1.7,1.1-2.7,0c-1.8-1.9-3.6-3.7-5.4-5.5C82.9,166.9,81.3,166.1,79.7,166.2z M91,146.6
		c3.9,0,6.6-2.6,6.8-6.6c0.2-4.7,0.2-4.7,4.7-5c4.2-0.3,7.1-3.1,7.1-6.9c0-3.8-3-6.6-7.2-6.8c-4.5-0.2-4.5-0.2-4.6-4.7
		c0-0.1,0-0.1,0-0.2c-0.2-4-2.8-6.7-6.7-6.6c-3.8,0-6.6,2.7-6.7,6.6c-0.2,4.6-0.2,4.6-4.8,4.9c-4,0.3-7,3.1-7,6.8
		c-0.1,3.6,3,6.6,6.9,6.9c4.7,0.4,4.7,0.4,4.9,5C84.5,143.9,87.3,146.6,91,146.6z M166.3,123.9c-3.9,0-7.8-0.1-11.7,0
		c-4.1,0.1-6.9,2.8-6.9,6.7c0,3.7,3,6.7,7,6.7c7.7,0,15.4,0.1,23.1,0c3.9,0,7-3.1,7-6.7c0-3.7-3-6.6-7-6.7
		C174,123.8,170.2,123.9,166.3,123.9z M166.3,166.2c-3.8,0-7.6,0-11.4,0c-4.3,0.1-7.1,2.8-7.1,6.7c0,3.8,3,6.7,7.2,6.7
		c7.6,0,15.1,0,22.7,0c4.1,0,7.2-3,7.2-6.8c0-3.7-3-6.6-7-6.7C174,166.1,170.1,166.2,166.3,166.2z M166.4,203c3.8,0,7.6,0,11.4,0
		c4-0.1,7-3,7-6.7c0-3.7-3.1-6.7-7-6.7c-7.7,0-15.4,0-23.1,0c-4,0-6.9,3-6.9,6.7c0,3.8,2.8,6.6,6.9,6.7
		C158.6,203.1,162.5,203,166.4,203z"/>
</g>
</svg>
