<?xml version="1.0" encoding="utf-8"?>
<!-- Generator: Adobe Illustrator 25.2.1, SVG Export Plug-In . SVG Version: 6.00 Build 0)  -->
<svg version="1.1" id="Layer_1" xmlns="http://www.w3.org/2000/svg" xmlns:xlink="http://www.w3.org/1999/xlink" x="0px" y="0px"
	 viewBox="0 0 256 256" style="enable-background:new 0 0 256 256;" xml:space="preserve">
<path d="M128.2,16.4c61.1-0.1,111.2,49.8,111.3,110.9c0.1,61.4-48.9,111-110.1,111.7c-61.9,0.7-112.3-48.8-112.6-110.6
	C16.6,66.4,66.3,16.6,128.2,16.4z M163.5,194.6c0.5-0.2,1.6-0.4,2.5-0.9c10.1-6.4,19.3-13.9,27.2-22.9c2.7-3.2,2.6-5-0.8-7.6
	c-9.2-6.9-19-13-29.5-17.7c-3.3-1.5-4.4-1.1-6.9,1.6c-2.6,2.8-5.2,5.7-7.6,8.7c-1.4,1.7-2.9,2.1-4.8,1.2c-2.7-1.1-5.5-2-8.1-3.3
	c-17.5-8.7-29.6-22.2-36.1-40.6c-0.8-2.3-0.7-4,1.4-5.6c2.6-2,5.1-4.3,7.5-6.5c3.8-3.5,4.3-4.5,1.8-9c-5.3-9.3-10.8-18.5-16.6-27.5
	c-2.8-4.4-4.9-4.5-8.9-1c-8.6,7.7-15.8,16.5-22,26.2c-0.8,1.2-1.2,3.1-0.9,4.6c0.9,4.6,1.8,9.3,3.4,13.7
	c5.6,16.3,15.1,30.2,26.5,42.9c14.7,16.4,31.5,29.9,51.9,38.5C149.7,191.9,156.2,193.8,163.5,194.6z M194.9,122.9
	c0.2-37-32.1-63.2-61.8-61.6c0,3,0,6,0,9.2c14.4,0.3,26.8,5.3,36.9,15.4c10.2,10.2,15.2,22.7,15.5,37.1
	C188.8,122.9,191.8,122.9,194.9,122.9z M170.8,122.9c1.3-21.3-19.6-39.6-37.7-37.7c0,3,0,6,0,9c7.9,0.3,14.6,3,20.1,8.5
	c5.5,5.5,8.2,12.4,8.5,20.2C164.9,122.9,167.9,122.9,170.8,122.9z"/>
</svg>
