<svg width="27" height="24" viewBox="0 0 27 24" fill="none" xmlns="http://www.w3.org/2000/svg">
<path d="M15.0623 0C21.6572 0 27 5.4 27 12C27 18.6 21.6572 24 15.0623 24C10.8763 24 7.21511 21.816 5.08039 18.516L6.96466 17.016C8.6462 19.764 11.6396 21.6 15.0742 21.6C17.6045 21.6 20.0312 20.5886 21.8205 18.7882C23.6097 16.9879 24.6148 14.5461 24.6148 12C24.6148 9.45392 23.6097 7.01212 21.8205 5.21178C20.0312 3.41143 17.6045 2.4 15.0742 2.4C10.2085 2.4 6.20141 6.072 5.61705 10.8H8.90857L4.44832 15.276L0 10.8H3.20804C3.80433 4.74 8.88472 0 15.0623 0ZM18.5923 9.888C19.1886 9.9 19.6776 10.38 19.6776 10.992V16.524C19.6776 17.124 19.1886 17.628 18.5804 17.628H11.9854C11.3772 17.628 10.8883 17.124 10.8883 16.524V10.992C10.8883 10.38 11.3772 9.9 11.9735 9.888V8.676C11.9735 6.84 13.4642 5.352 15.2769 5.352C17.1016 5.352 18.5923 6.84 18.5923 8.676V9.888ZM15.2769 7.032C14.3825 7.032 13.6431 7.764 13.6431 8.676V9.888H16.9227V8.676C16.9227 7.764 16.1833 7.032 15.2769 7.032Z" fill="#403535"/>
</svg>
