<svg width="26" height="26" viewBox="0 0 26 26" fill="none" xmlns="http://www.w3.org/2000/svg">
<path d="M9.1 15.6C9.1 12.35 10.2375 9.5875 12.5125 7.3125C14.7875 5.0375 17.55 3.9 20.8 3.9V6.5C18.265 6.5 16.1148 7.3827 14.3494 9.1481C12.5831 10.9144 11.7 13.065 11.7 15.6H9.1ZM14.3 15.6C14.3 13.8017 14.934 12.2685 16.2019 11.0006C17.469 9.73353 19.0017 9.1 20.8 9.1V11.7C19.7167 11.7 18.7958 12.0792 18.0375 12.8375C17.2792 13.5958 16.9 14.5167 16.9 15.6H14.3ZM3.9 5.2C3.185 5.2 2.5727 4.9452 2.0631 4.4356C1.55437 3.92687 1.3 3.315 1.3 2.6C1.3 1.885 1.55437 1.2727 2.0631 0.7631C2.5727 0.254367 3.185 0 3.9 0C4.615 0 5.22687 0.254367 5.7356 0.7631C6.2452 1.2727 6.5 1.885 6.5 2.6C6.5 3.315 6.2452 3.92687 5.7356 4.4356C5.22687 4.9452 4.615 5.2 3.9 5.2ZM0 11.7V8.45C0 7.90833 0.1898 7.44813 0.5694 7.0694C0.948133 6.6898 1.40833 6.5 1.95 6.5H5.85C6.825 6.5 7.6648 6.19103 8.3694 5.5731C9.07313 4.95603 9.51167 4.18167 9.685 3.25H12.285C12.155 4.55 11.6783 5.69833 10.855 6.695C10.0317 7.69167 9.01333 8.385 7.8 8.775V11.7H0ZM22.1 19.5C21.385 19.5 20.7727 19.2456 20.2631 18.7369C19.7544 18.2273 19.5 17.615 19.5 16.9C19.5 16.185 19.7544 15.5727 20.2631 15.0631C20.7727 14.5544 21.385 14.3 22.1 14.3C22.815 14.3 23.4273 14.5544 23.9369 15.0631C24.4456 15.5727 24.7 16.185 24.7 16.9C24.7 17.615 24.4456 18.2273 23.9369 18.7369C23.4273 19.2456 22.815 19.5 22.1 19.5ZM18.2 26V23.075C16.9867 22.685 15.9683 21.9917 15.145 20.995C14.3217 19.9983 13.845 18.85 13.715 17.55H16.315C16.4883 18.4817 16.9269 19.2565 17.6306 19.8744C18.3352 20.4915 19.175 20.8 20.15 20.8H24.05C24.5917 20.8 25.0519 20.9898 25.4306 21.3694C25.8102 21.7481 26 22.2083 26 22.75V26H18.2Z" fill="black"/>
</svg>
