<?xml version="1.0" encoding="utf-8"?>
<!-- Generator: Adobe Illustrator 25.2.1, SVG Export Plug-In . SVG Version: 6.00 Build 0)  -->
<svg version="1.1" id="Layer_1" xmlns="http://www.w3.org/2000/svg" xmlns:xlink="http://www.w3.org/1999/xlink" x="0px" y="0px"
	 viewBox="0 0 512 512" style="enable-background:new 0 0 512 512;" xml:space="preserve">
<path d="M391.8,460.5c-90.5,0-181,0-271.5,0c-0.7-0.2-1.5-0.6-2.2-0.7c-39.2-5.9-66.3-36.9-66.4-76.5c-0.1-84.8,0-169.5,0-254.3
	c0-11.3,1.8-22.3,6.8-32.5c14.5-29.4,38.2-44.7,71-44.8c79.3-0.3,158.6-0.1,237.9-0.1c6.5,0,13-0.1,19.6,0.1
	c31.3,1,58.6,20.9,69,50.5c2.1,5.8,3.1,12,4.6,18.1c0,90.5,0,181,0,271.5c-0.3,1-0.6,2-0.8,3c-5.1,29.8-21.6,50.2-49.8,61
	C404,458.1,397.8,459,391.8,460.5z M244,268.1c-1.7-1.6-2.7-2.5-3.7-3.5c-13-13-25.9-26-39-38.9c-4.4-4.3-9.7-5.1-14.6-2.4
	c-4.7,2.6-7.3,8-5.7,13.2c0.9,2.8,2.8,5.4,4.9,7.5c19.8,20,39.8,39.9,59.8,59.9c7.2,7.2,13.3,7.2,20.6-0.1
	c20-19.9,39.9-39.9,59.8-59.8c0.8-0.8,1.7-1.7,2.5-2.6c3-3.6,3.6-7.7,2-12c-1.6-4.4-5-6.8-9.5-7.5c-4.4-0.7-8,1.3-11,4.4
	c-12.8,12.8-25.6,25.6-38.4,38.4c-1,1-2,1.9-3.7,3.4c0-2.2,0-3.6,0-5c0-39.8,0-79.6,0-119.3c0-1.5,0.1-2.9-0.1-4.4
	c-0.7-6.2-5.8-10.7-11.9-10.7c-6.1,0-11.2,4.6-11.8,10.8c-0.2,1.4-0.1,2.9-0.1,4.4c0,39.8,0,79.6,0,119.3
	C244,264.5,244,265.9,244,268.1z M256.1,359.6c-37.2,0-74.5,0-111.7,0c-1.7,0-3.5,0-5.2,0.2c-6.8,0.7-11.4,6.8-10.4,13.5
	c1,6.8,5.9,10.2,14.7,10.2c74.9,0,149.8,0,224.7,0c1.7,0,3.5-0.1,5.2-0.3c6.7-1.1,10.8-7,9.7-13.6c-1-6.4-5.8-9.9-13.7-9.9
	C331.7,359.6,293.9,359.6,256.1,359.6z"/>
</svg>
