<svg width="26" height="26" viewBox="0 0 26 26" fill="none" xmlns="http://www.w3.org/2000/svg">
<path fill-rule="evenodd" clip-rule="evenodd" d="M13 24.7C19.4616 24.7 24.7 19.4616 24.7 13C24.7 6.53834 19.4616 1.3 13 1.3C6.53835 1.3 1.3 6.53834 1.3 13C1.3 19.4616 6.53835 24.7 13 24.7ZM13 26C20.1799 26 26 20.1799 26 13C26 5.82009 20.1799 0 13 0C5.8201 0 0 5.82009 0 13C0 20.1799 5.8201 26 13 26Z" fill="#403535"/>
<path d="M5.19995 20.5594C5.19995 19.888 5.70175 19.3205 6.36995 19.2464C11.3847 18.6914 14.638 18.7414 19.6417 19.2588C19.8915 19.285 20.1283 19.3835 20.3232 19.5421C20.518 19.7007 20.6625 19.9126 20.7388 20.152C20.8152 20.3913 20.8202 20.6477 20.7533 20.8899C20.6863 21.1321 20.5503 21.3495 20.3619 21.5156C14.4566 26.6629 11.0818 26.5921 5.61595 21.5208C5.34945 21.2738 5.19995 20.9221 5.19995 20.5594Z" fill="#403535"/>
<path fill-rule="evenodd" clip-rule="evenodd" d="M19.5748 19.905C14.6108 19.3915 11.4043 19.3434 6.4409 19.8926C6.27752 19.9116 6.1269 19.9903 6.01788 20.1134C5.90886 20.2366 5.84911 20.3957 5.85005 20.5601C5.85005 20.746 5.9274 20.9222 6.05805 21.0444C8.76725 23.5573 10.82 24.6928 12.8265 24.7C14.8402 24.7071 17.0034 23.5807 19.9349 21.0262C20.028 20.9433 20.0951 20.8351 20.1279 20.7149C20.1607 20.5946 20.1579 20.4674 20.1197 20.3487C20.0816 20.23 20.0098 20.1249 19.913 20.0462C19.8163 19.9676 19.6988 19.9181 19.5748 19.905ZM6.29855 18.6004C11.366 18.0395 14.6667 18.0902 19.7094 18.6121C20.0852 18.6513 20.4416 18.7993 20.7346 19.0379C21.0277 19.2766 21.2449 19.5954 21.3595 19.9556C21.4742 20.3157 21.4813 20.7014 21.3801 21.0656C21.2789 21.4297 21.0737 21.7564 20.7897 22.0057C17.8159 24.5979 15.3394 26.0097 12.8226 26C10.2987 25.9909 7.93135 24.555 5.1747 21.9973C4.97733 21.8135 4.81999 21.5909 4.71252 21.3435C4.60504 21.0961 4.54973 20.8292 4.55005 20.5595C4.5491 20.0749 4.72698 19.6069 5.04962 19.2453C5.37225 18.8837 5.81696 18.6545 6.29855 18.6004Z" fill="#403535"/>
<path d="M18.2 10.4001C18.2 11.7792 17.6522 13.1018 16.677 14.077C15.7018 15.0522 14.3792 15.6001 13 15.6001C11.6209 15.6001 10.2983 15.0522 9.32309 14.077C8.3479 13.1018 7.80005 11.7792 7.80005 10.4001C7.80005 9.02094 8.3479 7.6983 9.32309 6.72311C10.2983 5.74793 11.6209 5.20007 13 5.20007C14.3792 5.20007 15.7018 5.74793 16.677 6.72311C17.6522 7.6983 18.2 9.02094 18.2 10.4001Z" fill="#403535"/>
<path fill-rule="evenodd" clip-rule="evenodd" d="M13 14.3001C14.0344 14.3001 15.0264 13.8892 15.7578 13.1578C16.4892 12.4264 16.9 11.4344 16.9 10.4001C16.9 9.36572 16.4892 8.37374 15.7578 7.64235C15.0264 6.91096 14.0344 6.50007 13 6.50007C11.9657 6.50007 10.9737 6.91096 10.2423 7.64235C9.51094 8.37374 9.10005 9.36572 9.10005 10.4001C9.10005 11.4344 9.51094 12.4264 10.2423 13.1578C10.9737 13.8892 11.9657 14.3001 13 14.3001ZM13 15.6001C14.3792 15.6001 15.7018 15.0522 16.677 14.077C17.6522 13.1018 18.2 11.7792 18.2 10.4001C18.2 9.02094 17.6522 7.6983 16.677 6.72311C15.7018 5.74793 14.3792 5.20007 13 5.20007C11.6209 5.20007 10.2983 5.74793 9.32309 6.72311C8.3479 7.6983 7.80005 9.02094 7.80005 10.4001C7.80005 11.7792 8.3479 13.1018 9.32309 14.077C10.2983 15.0522 11.6209 15.6001 13 15.6001Z" fill="#403535"/>
</svg>
