<?xml version="1.0" encoding="utf-8"?>
<!-- Generator: Adobe Illustrator 25.2.1, SVG Export Plug-In . SVG Version: 6.00 Build 0)  -->
<svg version="1.1" id="Layer_1" xmlns="http://www.w3.org/2000/svg" xmlns:xlink="http://www.w3.org/1999/xlink" x="0px" y="0px"
	 viewBox="0 0 256 256" style="enable-background:new 0 0 256 256;" xml:space="preserve">
<g>
	<path d="M118.1,15.4c6.4,0,12.9,0,19.3,0c0.4,0.1,0.8,0.2,1.3,0.3c8.7,0.8,17.2,2.7,25.4,5.5c47.7,16.3,80.5,63.5,75.7,116.7
		c-1.6,17.5-6.8,33.8-16.1,48.6c-24.9,40.1-69.8,60.7-116.1,51.7c-45.3-8.8-74.5-36.5-88.3-80.4c-2.1-6.6-2.9-13.5-3.8-20.4
		c0-6.4,0-12.9,0-19.3c0.5-3.6,0.9-7.3,1.6-10.8c9.8-45,36.7-74.3,80.6-88C104.3,17.2,111.2,16.3,118.1,15.4z M127.6,174.2
		c18.1,0,36.2,0,54.4,0c8,0,12.7-4.7,12.7-12.7c0-20.5,0-40.9,0-61.4c0-0.8,0.4-1.8-0.4-2.2c-0.7-0.3-1.4,0.5-2.1,1
		c-19.8,12.4-39.7,24.7-59.5,37.1c-3.4,2.2-6.5,2.1-10,0c-19.9-12.5-39.8-24.9-59.7-37.2c-0.6-0.4-1.2-1.2-1.9-0.8
		c-0.7,0.4-0.3,1.3-0.3,2c0,20.7,0,41.4,0,62c0,0.9,0,1.9,0.2,2.8c1.2,5.8,5.7,9.3,11.8,9.3C91.1,174.2,109.4,174.2,127.6,174.2z
		 M192.8,95.9c-0.9-0.6-1.2-0.9-1.5-1.1c-20.5-12.8-41.1-25.6-61.5-38.4c-1.6-1-2.7-0.8-4.2,0.1C105.2,69.3,84.8,82,64.4,94.7
		c-0.4,0.3-1.2,0.4-1.1,1.2C106.3,95.9,149.2,95.9,192.8,95.9z"/>
</g>
</svg>
