<svg width="233" height="234" viewBox="0 0 233 234" fill="none" xmlns="http://www.w3.org/2000/svg">
<path fill-rule="evenodd" clip-rule="evenodd" d="M2.86926 60.1997C5.72311 30.6893 28.4178 6.83029 57.8694 3.42369C97.3333 -1.14099 134.786 -1.1661 175.066 3.49779C204.468 6.90222 227.235 30.6178 230.085 60.0793C233.755 98.0203 233.695 131.324 229.948 172.685C227.094 204.183 202.071 229.213 170.542 231.69C134.114 234.552 101.952 234.403 62.892 231.34C31.1082 228.848 5.56461 203.897 2.67751 172.147C-0.883012 132.991 -0.965508 99.8532 2.86926 60.1997ZM144 57.5361C144 60.8476 142.705 64.0644 140.392 66.3824C138.079 68.7477 134.98 70.0723 131.742 70.0723C128.504 70.0723 125.358 68.7477 123.092 66.3824C120.779 64.0171 119.484 60.8476 119.484 57.5361C119.484 54.2247 120.779 51.0079 123.092 48.6899C125.405 46.3246 128.504 45 131.742 45C134.98 45 138.125 46.3246 140.392 48.6899C142.705 51.0079 144 54.1774 144 57.5361ZM133.222 94.2931L116.338 158.771C110.417 181.336 126.7 173.957 133.962 170.645C129.521 177.505 123.323 182.992 116.107 186.587C104.542 192.311 86.5946 187.392 89.7401 175.47L106.624 110.992C112.527 88.5434 96.362 95.8092 89.067 99.0881L89 99.1183C93.4407 92.2589 99.6392 86.7714 106.855 83.1761C118.42 77.4521 136.368 82.3719 133.222 94.2931Z" fill="#011476"/>
</svg>
