<svg width="233" height="234" viewBox="0 0 233 234" fill="none" xmlns="http://www.w3.org/2000/svg">
<path fill-rule="evenodd" clip-rule="evenodd" d="M57.8694 3.42369C28.4178 6.83029 5.72312 30.6893 2.86926 60.1997C-0.965508 99.8532 -0.883012 132.991 2.67751 172.147C5.56461 203.897 31.1082 228.848 62.892 231.34C101.952 234.403 134.114 234.552 170.542 231.69C202.071 229.213 227.094 204.183 229.948 172.685C233.695 131.324 233.755 98.0203 230.085 60.0793C227.235 30.6178 204.468 6.90222 175.066 3.49779C134.786 -1.1661 97.3333 -1.14099 57.8694 3.42369ZM165.799 132.237V137.109H165.8C174.724 138.107 182.508 143.621 186.409 151.71C190.309 159.798 189.778 169.323 185.003 176.927C180.228 184.532 171.88 189.147 162.9 189.147C153.92 189.147 145.571 184.532 140.796 176.927C136.021 169.323 135.49 159.798 139.39 151.71C143.292 143.621 151.075 138.107 159.999 137.109V132.237C159.998 130.374 159.257 128.589 157.94 127.273C156.624 125.955 154.838 125.214 152.976 125.213H80.0237C78.1613 125.214 76.3761 125.955 75.0597 127.273C73.7423 128.589 73.0014 130.374 73.0003 132.237V137.109C81.9244 138.107 89.708 143.621 93.6094 151.71C97.5097 159.798 96.9784 169.323 92.2036 176.927C87.4287 184.532 79.0799 189.147 70.1001 189.147C61.1202 189.147 52.7714 184.532 47.9966 176.927C43.2218 169.323 42.6905 159.798 46.5907 151.71C50.4921 143.621 58.2757 138.107 67.1999 137.109V132.237C67.2045 128.837 68.5571 125.578 70.9609 123.174C73.3647 120.77 76.6237 119.418 80.0234 119.413H113.6V107.668C102.593 106.663 92.8918 100.034 87.9572 90.1457C83.0214 80.2558 83.5562 68.5175 89.3698 59.1186C95.1834 49.7197 105.448 44 116.5 44C127.551 44 137.816 49.7191 143.629 59.1186C149.443 68.5181 149.978 80.2561 145.042 90.1457C140.107 100.034 130.406 106.663 119.4 107.668V119.413H152.976C156.376 119.418 159.634 120.77 162.038 123.174C164.442 125.578 165.795 128.837 165.799 132.237Z" fill="#011476"/>
</svg>
