<svg width="233" height="234" viewBox="0 0 233 234" fill="none" xmlns="http://www.w3.org/2000/svg">
<path fill-rule="evenodd" clip-rule="evenodd" d="M57.8694 3.42372C28.4178 6.83033 5.7232 30.6893 2.8692 60.1997C-0.965517 99.8533 -0.882997 132.991 2.67755 172.147C5.56476 203.897 31.1082 228.848 62.8921 231.34C101.952 234.403 134.114 234.552 170.542 231.69C202.071 229.213 227.094 204.183 229.948 172.685C233.695 131.324 233.755 98.0203 230.085 60.0794C227.235 30.6178 204.468 6.90223 175.066 3.49781C134.786 -1.16613 97.3333 -1.14098 57.8694 3.42372ZM161.673 86.635H193.159C195.294 86.8318 197.154 88.0912 198.182 89.9804C199.171 91.8696 199.171 94.113 198.182 96.0022C197.154 97.8521 195.294 99.1115 193.159 99.3477H175.438L169.07 148.663C168.674 151.733 167.132 154.528 164.798 156.574C162.464 158.621 159.458 159.762 156.333 159.762H76.5906C73.4659 159.723 70.4598 158.621 68.126 156.574C65.7923 154.528 64.2891 151.733 63.8541 148.663L57.4857 99.3477H39.7652C37.6292 99.1508 35.7305 97.8914 34.7418 96.0022C33.7527 94.113 33.7527 91.8696 34.7418 89.9804C35.7701 88.1306 37.6292 86.8711 39.7652 86.635H71.2508L89.4063 62.1543C90.8699 60.5407 93.0059 59.7534 95.1419 60.0682C97.2779 60.3438 99.1368 61.7213 100.047 63.6499C100.956 65.6178 100.838 67.8612 99.7303 69.7111L87.1912 86.5956H145.732L133.193 69.7111C132.086 67.8612 131.967 65.5784 132.877 63.6499C133.787 61.7213 135.646 60.3832 137.782 60.0682C139.918 59.7534 142.093 60.5407 143.517 62.1543L161.673 86.635ZM92.4918 143.468C94.4693 142.366 95.6956 140.28 95.6956 137.997V110.801C95.6956 108.557 94.4693 106.471 92.4918 105.33C90.514 104.189 88.1011 104.189 86.1234 105.33C84.1456 106.432 82.9195 108.518 82.9195 110.801V137.997C82.9195 140.241 84.1456 142.327 86.1234 143.468C88.1011 144.609 90.514 144.57 92.4918 143.468ZM120.18 143.468C122.158 142.366 123.384 140.28 123.384 137.997V110.801C123.384 108.557 122.158 106.471 120.18 105.33C118.202 104.189 115.789 104.189 113.812 105.33C111.834 106.432 110.608 108.518 110.608 110.801V137.997C110.608 140.241 111.834 142.327 113.812 143.468C115.789 144.609 118.202 144.57 120.18 143.468ZM147.868 143.468C149.846 142.366 151.072 140.28 151.072 137.997V110.801C151.072 108.557 149.846 106.471 147.868 105.33C145.891 104.189 143.478 104.189 141.5 105.33C139.522 106.432 138.296 108.518 138.296 110.801V137.997C138.296 140.241 139.522 142.327 141.5 143.468C143.478 144.609 145.891 144.57 147.868 143.468Z" fill="#011476"/>
</svg>
