<svg width="233" height="234" viewBox="0 0 233 234" fill="none" xmlns="http://www.w3.org/2000/svg">
<path fill-rule="evenodd" clip-rule="evenodd" d="M2.86926 60.1997C5.72311 30.6893 28.4178 6.83029 57.8694 3.42369C97.3333 -1.14099 134.786 -1.1661 175.066 3.49779C204.468 6.90222 227.235 30.6178 230.085 60.0793C233.755 98.0203 233.695 131.324 229.948 172.685C227.094 204.183 202.071 229.213 170.542 231.69C134.114 234.552 101.952 234.403 62.892 231.34C31.1082 228.848 5.56461 203.897 2.67751 172.147C-0.883012 132.991 -0.965508 99.8532 2.86926 60.1997ZM53.6923 54H179.692C185.037 54 189.385 59.3446 189.385 63.6923V87.9231C189.385 93.2677 185.037 97.6154 179.692 97.6154H53.6923C48.3477 97.6154 44 92.2708 44 87.9231V63.6923C44 58.3477 48.3477 54 53.6923 54ZM53.6923 102.462H179.692C180.495 102.489 181.326 102.406 182.129 102.212V165.462C182.129 169.311 180.578 173.021 177.865 175.735C175.123 178.449 171.44 180 167.591 180H65.8215C61.9446 180 58.2338 178.477 55.52 175.735C52.8061 172.994 51.2554 169.311 51.2554 165.462V102.212C52.0584 102.406 52.8892 102.489 53.6923 102.462ZM136.465 145.191C137.129 145.191 137.683 144.665 137.683 143.972V135.443C137.683 134.778 137.157 134.225 136.465 134.225H122.785C122.12 134.225 121.566 133.698 121.566 133.006V119.409C121.566 118.745 121.04 118.191 120.348 118.191H111.985C111.32 118.191 110.766 118.717 110.766 119.409V133.006C110.766 133.671 110.24 134.225 109.548 134.225H95.9508C95.2861 134.225 94.7323 134.751 94.7323 135.443V143.972C94.7323 144.637 95.2585 145.191 95.9508 145.191H109.548C110.212 145.191 110.766 145.717 110.766 146.409V159.923C110.766 160.588 111.292 161.142 111.985 161.142H120.348C121.012 161.142 121.566 160.615 121.566 159.923V146.409C121.566 145.745 122.092 145.191 122.785 145.191H136.465Z" fill="#011476"/>
</svg>
