<svg width="233" height="234" viewBox="0 0 233 234" fill="none" xmlns="http://www.w3.org/2000/svg">
<path fill-rule="evenodd" clip-rule="evenodd" d="M2.8692 60.1997C5.7232 30.6893 28.4178 6.83025 57.8694 3.42369C97.3333 -1.141 134.786 -1.16609 175.066 3.49779C204.468 6.90221 227.235 30.6178 230.085 60.0793C233.755 98.0202 233.695 131.324 229.948 172.685C227.094 204.183 202.071 229.213 170.542 231.69C134.114 234.552 101.952 234.403 62.8921 231.34C31.1082 228.848 5.56476 203.897 2.67755 172.147C-0.882997 132.991 -0.965517 99.8533 2.8692 60.1997ZM158.112 54C146.606 54 137.279 63.3273 137.279 74.8332C137.279 86.3391 146.606 95.6664 158.112 95.6664C169.618 95.6664 178.945 86.3391 178.945 74.8332C178.945 63.3273 169.618 54 158.112 54ZM135.028 112.565L126.564 124.875L105.188 85.4153C103.975 83.1738 101.631 81.7776 99.0823 81.7776C96.5338 81.7776 94.189 83.1739 92.9752 85.4153L47.8384 168.748C46.6724 170.9 46.7259 173.506 47.9781 175.609C49.23 177.712 51.4971 179 53.9444 179H178.944C181.522 179 183.889 177.571 185.089 175.288C186.29 173.006 186.127 170.247 184.666 168.122L146.472 112.565C145.177 110.681 143.037 109.556 140.75 109.556C138.463 109.556 136.323 110.681 135.028 112.565Z" fill="#011476"/>
</svg>
