<?xml version="1.0" encoding="utf-8"?>
<!-- Generator: Adobe Illustrator 25.2.1, SVG Export Plug-In . SVG Version: 6.00 Build 0)  -->
<svg version="1.1" id="Layer_1" xmlns="http://www.w3.org/2000/svg" xmlns:xlink="http://www.w3.org/1999/xlink" x="0px" y="0px"
	 viewBox="0 0 256 256" style="enable-background:new 0 0 256 256;" xml:space="preserve">
<style type="text/css">
	.st0{fill:#000F5F;}
</style>
<g>
	<path class="st0" d="M135,13c7.3,1.1,14.4,2.9,20.9,6.4c19,10.2,30.4,25.8,33.1,47.3c4.2,33-19,63.3-51.8,68.2
		c-5.2,0.8-10.5,0.4-15.7,0.8c-21.3,1.5-40.2,9.1-56.5,22.8c-17,14.2-27.9,32.2-33.1,53.7c-1.7,7,2.5,12.9,10.2,12.8
		c29.5-0.1,59-0.1,88.5,0c6,0,10,4.5,9.3,10.4c-0.4,3.9-3,6.2-6.4,7.8c-32.6,0-65.3,0-97.9,0c-0.6-0.2-1.3-0.4-1.9-0.6
		c-8.4-2.2-14.4-7.3-18.2-15.1c-3.5-7.2-3-14.7-0.9-22.1c11.1-39.5,35.7-66.7,74.1-81.4c0.6-0.2,1.5-0.2,1.7-0.9
		c0.2-0.8-0.7-1.1-1.2-1.5c-16.7-14.5-24.4-32.7-21.8-54.7c2.6-21.3,14-36.8,32.7-47.1c6.6-3.6,13.9-5.5,21.3-6.6
		C126.1,13,130.6,13,135,13z M85.3,74.1c0.4,23.8,19,43.4,44.1,42.8c22.9-0.5,41.6-18.8,41.7-42.6c0.1-24.2-18.8-43.1-42.9-43.1
		C104.3,31.2,85.8,50.1,85.3,74.1z"/>
	<path class="st0" d="M164.3,243c-4-1.9-6.6-4.6-6.4-9.3c0.1-4.8,3.9-8.8,8.7-8.8c22.7,0,45.5,0,68.2,0c3.8,0,6.1,2.3,8.2,5.1
		c0,3.8-0.1,7.6,0,11.5c0,1.3-0.3,1.6-1.6,1.6C215.6,243,189.9,243,164.3,243z"/>
	<path class="st0" d="M242.9,166.2c-2.6,4.1-6.4,5.2-11.1,5.2c-21.6-0.2-43.3-0.1-64.9-0.1c-4.2,0-7.7-2.7-8.8-6.7
		c-1.1-4.1,0.6-8.3,4.3-10.4c1.4-0.8,2.9-1.2,4.5-1.2c22.5,0,45.1,0,67.6,0c3.9,0,6.3,2.3,8.4,5.1
		C242.9,160.8,242.9,163.5,242.9,166.2z"/>
	<path class="st0" d="M242.9,202.1c-2.6,4.1-6.4,5.2-11.1,5.2c-21.6-0.2-43.2-0.1-64.9-0.1c-4.3,0-7.8-2.9-8.9-6.9
		c-1-4,0.8-8.1,4.4-10.2c1.3-0.8,2.7-1.2,4.3-1.2c22.7,0,45.3,0,68,0c3.8,0,6.1,2.3,8.2,5.1C242.9,196.7,242.9,199.4,242.9,202.1z"
		/>
</g>
</svg>
