<?xml version="1.0" encoding="utf-8"?>
<!-- Generator: Adobe Illustrator 25.2.1, SVG Export Plug-In . SVG Version: 6.00 Build 0)  -->
<svg version="1.1" id="Layer_1" xmlns="http://www.w3.org/2000/svg" xmlns:xlink="http://www.w3.org/1999/xlink" x="0px" y="0px"
	 viewBox="0 0 500 500" style="enable-background:new 0 0 500 500;" xml:space="preserve">
<path d="M242.4,71.7c46.2-0.1,83.7,37.4,83.8,83.7c0.1,46.3-37,83.7-83.5,83.9c-46.3,0.3-84.1-37.4-84.1-83.8
	C158.6,109.4,196.1,71.9,242.4,71.7z"/>
<path d="M283.1,419.4c-0.7,0-1.7,0-2.7,0c-54.9,0-109.8,0-164.6,0c-14.3,0-25-7.4-28.7-20c-0.8-2.8-1.2-5.9-1.3-8.8
	c-0.1-19.1-0.1-38.2,0-57.2c0.1-10.9,5-19.2,14.7-24.3c32.5-17.1,67-28,103.5-32.6c23.6-3,47.2-3,70.9-0.5c0.8,0.1,1.6,0.3,1.8,0.4
	c-3.2,6.9-6.3,13.6-9.8,21.1c-5.8,0-12.6-0.2-19.4,0c-20.6,0.6-35.9,17-35.2,37.7c0.7,19,16.5,33.8,36.6,34.1c6.3,0.1,12.7,0,19.3,0
	c1.4,8.5,4.5,16.2,11,21.7c3.6,3,4.4,5.6,3.6,10.2C281.9,406.9,282.9,413.1,283.1,419.4z"/>
<path d="M413.7,333.5c0,17.2,0,34.4,0,51.6c-0.1,25.5-18.4,43.8-43.9,43.8c-11.2,0-22.5,0.2-33.7-0.5c-10.5-0.6-19.3-5.6-26.4-13.2
	c-4.9-5.3-4.9-12.4,0-17.1c4.8-4.7,12.1-4.7,17.1,0.4c4.6,4.7,10,6.6,16.5,6.5c8.9-0.1,17.7,0,26.6,0c12.5-0.1,20-7.6,20-20.1
	c0-34.6,0-69.1,0-103.7c0-12.4-7.5-19.8-19.8-19.8c-9.4,0-18.7,0.1-28.1,0c-5.8-0.1-10.6,1.9-14.7,6c-5.2,5.3-12.5,5.5-17.4,0.9
	c-5.1-4.9-5-12.1,0.3-17.6c8.1-8.4,17.9-13,29.6-13.1c10.7-0.1,21.5-0.2,32.2,0c23.7,0.5,41.6,18.7,41.8,42.4
	C413.8,297.8,413.7,315.7,413.7,333.5z"/>
<path d="M305.9,345.3c-1.3,0-2.6,0-3.9,0c-17.6,0-35.2,0.1-52.7,0c-9.5,0-15.4-8.1-12.3-16.3c1.9-4.9,6.1-7.6,12.1-7.6
	c17.6,0,35.2,0,52.7,0c1.3,0,2.7,0,5.3,0c-4-4-7.5-7.1-10.4-10.6c-1.9-2.2-3.7-4.9-4.3-7.6c-1.2-5.3,1.5-10.1,6.1-12.5
	c4.7-2.4,10-1.7,14.1,2.3c6.3,6.2,12.5,12.5,18.8,18.7c4.2,4.2,8.5,8.4,12.7,12.6c5.1,5.2,5.2,12.5,0,17.6
	c-10.3,10.3-20.7,20.6-31,30.9c-3.7,3.7-8,5.1-12.9,3.5c-8.3-2.6-10.9-13-5-19.4c3.5-3.7,7.3-7.1,11-10.6
	C306.2,346,306,345.6,305.9,345.3z"/>
</svg>
