<svg width="25" height="20" viewBox="0 0 25 20" fill="none" xmlns="http://www.w3.org/2000/svg">
<path d="M24.4583 14.4167L19.0416 19.8333L15.2499 16.0417L16.8749 14.4167L19.0416 16.5833L22.8333 12.7917L24.4583 14.4167ZM11.9999 5.75C12.8619 5.75 13.6885 6.09241 14.298 6.7019C14.9075 7.3114 15.2499 8.13805 15.2499 9C15.2499 9.86195 14.9075 10.6886 14.298 11.2981C13.6885 11.9076 12.8619 12.25 11.9999 12.25C11.138 12.25 10.3113 11.9076 9.70182 11.2981C9.09233 10.6886 8.74992 9.86195 8.74992 9C8.74992 8.13805 9.09233 7.3114 9.70182 6.7019C10.3113 6.09241 11.138 5.75 11.9999 5.75ZM11.9999 0.875C17.4166 0.875 22.0424 4.24417 23.9166 9C23.6458 9.70417 23.3099 10.365 22.9199 11.0042C22.2861 10.6207 21.5891 10.3529 20.8616 10.2133L21.5549 9C20.6793 7.21217 19.3197 5.70586 17.6306 4.65231C15.9415 3.59876 13.9907 3.04024 11.9999 3.04024C10.0092 3.04024 8.05837 3.59876 6.36927 4.65231C4.68017 5.70586 3.32053 7.21217 2.44492 9C3.32073 10.7876 4.68045 12.2936 6.36954 13.3469C8.05863 14.4002 10.0093 14.9585 11.9999 14.9583L13.3108 14.8825C13.1591 15.4242 13.0833 15.9983 13.0833 16.5833V17.0817L11.9999 17.125C6.58325 17.125 1.95742 13.7558 0.083252 9C1.95742 4.24417 6.58325 0.875 11.9999 0.875Z" fill="black"/>
</svg>
