<svg width="26" height="26" viewBox="0 0 26 26" fill="none" xmlns="http://www.w3.org/2000/svg">
<path d="M18.5575 19.6625L18.005 19.11C17.81 18.915 17.5773 18.8175 17.3069 18.8175C17.0365 18.8175 16.8034 18.915 16.6075 19.11C16.4125 19.305 16.315 19.5325 16.315 19.7925C16.315 20.0525 16.4125 20.28 16.6075 20.475L17.875 21.7425C18.07 21.9375 18.2975 22.035 18.5575 22.035C18.8175 22.035 19.045 21.9375 19.24 21.7425L22.3925 18.655C22.5875 18.46 22.685 18.2269 22.685 17.9556C22.685 17.6843 22.5875 17.4516 22.3925 17.2575C22.1975 17.0625 21.9644 16.965 21.6931 16.965C21.4218 16.965 21.1891 17.0625 20.995 17.2575L18.5575 19.6625ZM5.2 7.8H18.2C18.5683 7.8 18.8773 7.6752 19.1269 7.4256C19.3765 7.176 19.5009 6.86747 19.5 6.5C19.5 6.13167 19.3752 5.8227 19.1256 5.5731C18.876 5.3235 18.5675 5.19914 18.2 5.2H5.2C4.83167 5.2 4.5227 5.3248 4.2731 5.5744C4.0235 5.824 3.89913 6.13253 3.9 6.5C3.9 6.86833 4.0248 7.1773 4.2744 7.4269C4.524 7.6765 4.83253 7.80087 5.2 7.8ZM19.5 26C17.7017 26 16.1685 25.366 14.9006 24.0981C13.6327 22.8302 12.9991 21.2975 13 19.5C13 17.7017 13.634 16.1685 14.9019 14.9006C16.1698 13.6327 17.7025 12.9991 19.5 13C21.2983 13 22.8315 13.634 24.0994 14.9019C25.3673 16.1698 26.0009 17.7025 26 19.5C26 21.2983 25.366 22.8315 24.0981 24.0994C22.8302 25.3673 21.2975 26.0009 19.5 26ZM0 24.5375V2.6C0 1.885 0.2548 1.2727 0.7644 0.763102C1.274 0.253502 1.88587 -0.000864459 2.6 2.20713e-06H20.8C21.515 2.20713e-06 22.1273 0.254802 22.6369 0.764402C23.1465 1.274 23.4009 1.88587 23.4 2.6V11.2775C22.9883 11.0825 22.5658 10.92 22.1325 10.79C21.6992 10.66 21.255 10.5625 20.8 10.4975V2.6H2.6V20.865H10.4975C10.6058 21.5367 10.774 22.1758 11.0019 22.7825C11.2298 23.3892 11.5275 23.9633 11.895 24.505C11.7867 24.5267 11.6727 24.5102 11.5531 24.4556C11.4335 24.401 11.3308 24.3308 11.245 24.245L10.205 23.205C10.075 23.075 9.92333 23.01 9.75 23.01C9.57667 23.01 9.425 23.075 9.295 23.205L8.255 24.245C8.125 24.375 7.97333 24.44 7.8 24.44C7.62667 24.44 7.475 24.375 7.345 24.245L6.305 23.205C6.175 23.075 6.02333 23.01 5.85 23.01C5.67667 23.01 5.525 23.075 5.395 23.205L4.355 24.245C4.225 24.375 4.07333 24.44 3.9 24.44C3.72667 24.44 3.575 24.375 3.445 24.245L2.405 23.205C2.275 23.075 2.12333 23.01 1.95 23.01C1.77667 23.01 1.625 23.075 1.495 23.205L0.455 24.245L0 24.5375ZM5.2 18.2H10.4975C10.5625 17.745 10.66 17.3008 10.79 16.8675C10.92 16.4342 11.0825 16.0117 11.2775 15.6H5.2C4.83167 15.6 4.5227 15.7248 4.2731 15.9744C4.0235 16.224 3.89913 16.5325 3.9 16.9C3.9 17.2683 4.0248 17.5773 4.2744 17.8269C4.524 18.0765 4.83253 18.2009 5.2 18.2ZM5.2 13H13.13C13.9533 12.1983 14.9123 11.5644 16.0069 11.0981C17.1015 10.6318 18.2659 10.3991 19.5 10.4H5.2C4.83167 10.4 4.5227 10.5248 4.2731 10.7744C4.0235 11.024 3.89913 11.3325 3.9 11.7C3.9 12.0683 4.0248 12.3773 4.2744 12.6269C4.524 12.8765 4.83253 13.0009 5.2 13Z" fill="black"/>
</svg>
