<?xml version="1.0" encoding="utf-8"?>
<!-- Generator: Adobe Illustrator 25.2.1, SVG Export Plug-In . SVG Version: 6.00 Build 0)  -->
<svg version="1.1" id="Layer_1" xmlns="http://www.w3.org/2000/svg" xmlns:xlink="http://www.w3.org/1999/xlink" x="0px" y="0px"
	 viewBox="0 0 256 256" style="enable-background:new 0 0 256 256;" xml:space="preserve">
<g>
	<path d="M134.9,237.8c-4.6,0-9.1,0-13.7,0c-2.7-0.3-5.4-0.6-8-1c-21.8-3.1-41.2-11.9-57.7-26.5c-19.1-16.9-31-38-35.5-63.1
		c-0.7-4.1-1.1-8.2-1.7-12.3c0-4.6,0-9.1,0-13.7c0.1-0.7,0.3-1.4,0.4-2.1c0.8-5.2,1.2-10.5,2.5-15.6c8.3-33.9,28.2-58.8,59.5-74.3
		c20.7-10.3,42.7-13.2,65.5-9.4c28.5,4.9,51.7,18.9,69.2,41.8c18.3,24,25.4,51.3,21.5,81.2c-2.9,22-11.9,41.4-26.8,58
		c-16.9,18.9-37.9,30.7-62.9,35.2C143.1,236.8,139,237.3,134.9,237.8z M128.1,55C87.8,54.9,55,87.6,54.9,128
		c-0.1,40.2,32.7,73,73,73.1c40.3,0.1,73.1-32.7,73.1-73C201.2,87.8,168.4,55.1,128.1,55z"/>
	<path d="M107.1,143.3c0-10.2,0-20.2,0-30.4c14,0,27.6,0,41.4,0c1.1,10.1,1,20.2,0,30.4C134.9,143.3,121.3,143.3,107.1,143.3z"/>
	<path d="M109,101.2c2.2-10.8,4.8-21.2,11.5-30c5-6.5,9.9-6.5,14.9,0c5,6.4,7.6,14,9.6,21.7c0.7,2.7,1.2,5.4,1.9,8.3
		C134.3,101.2,121.8,101.2,109,101.2z"/>
	<path d="M109.3,154.8c12.4,0,24.8,0,37.7,0c-0.6,2.8-1.2,5.5-1.8,8.1c-1.8,6.9-4,13.7-8.1,19.7c-1.4,2.1-3.2,4-5.2,5.7
		c-2.6,2.2-5.3,2.2-7.8,0c-2.3-2-4.4-4.3-6-6.9c-4.6-7.3-6.8-15.5-8.6-23.8c-0.2-0.8-0.3-1.5-0.4-2.3
		C109.2,155.2,109.2,155.1,109.3,154.8z"/>
	<path d="M95.6,143.4c-1.6,0-3.3,0-5,0c-6.8,0-13.6,0-20.3,0c-1.5,0-2.2-0.3-2.6-1.9c-1.9-9.1-2-18.3,0.2-27.4
		c0.1-0.6,1-1.4,1.5-1.4c8.6-0.1,17.1,0,25.7,0c0.2,0,0.4,0.1,0.5,0.2C95.6,123,95.6,133.1,95.6,143.4z"/>
	<path d="M160.1,112.7c1.9,0,3.6,0,5.3,0c6.8,0,13.6,0,20.3,0c1.5,0,2.2,0.3,2.6,1.9c1.9,9.1,2,18.3-0.2,27.4
		c-0.1,0.6-1,1.4-1.5,1.4c-8.6,0.1-17.1,0-25.7,0c-0.2,0-0.4-0.1-0.6-0.2c0-0.3-0.1-0.6-0.1-0.8
		C160.1,132.6,160.1,122.7,160.1,112.7z"/>
	<path d="M158.8,101.2c-1.4-5.4-2.5-10.8-4.1-16c-1.6-5.1-3.8-10.1-5.7-15c10.8,1.5,30.4,19,34.4,31
		C175.1,101.2,167,101.2,158.8,101.2z"/>
	<path d="M183.6,155c-7.7,15.1-19.2,25.4-35.4,31.5c5.6-10.2,8.4-20.7,10.3-31.5C166.9,155,175.1,155,183.6,155z"/>
	<path d="M107.6,70.1c-5.4,9.9-8.2,20.4-10.1,31.2c-8.2,0-16.4,0-24.6,0C74.3,91.4,94.8,73,107.6,70.1z"/>
	<path d="M72.4,154.9c8.6,0,16.8,0,25.1,0c2,10.8,4.7,21.3,10.3,31.5C91.6,180.4,80.1,170,72.4,154.9z"/>
</g>
</svg>
