<?xml version="1.0" encoding="utf-8"?>
<!-- Generator: Adobe Illustrator 25.2.1, SVG Export Plug-In . SVG Version: 6.00 Build 0)  -->
<svg version="1.1" id="Layer_1" xmlns="http://www.w3.org/2000/svg" xmlns:xlink="http://www.w3.org/1999/xlink" x="0px" y="0px"
	 viewBox="0 0 256 256" style="enable-background:new 0 0 256 256;" xml:space="preserve">
<g>
	<path d="M238.7,119.9c0,6,0,12,0,18c-0.5,3.5-0.8,6.9-1.5,10.4c-9.2,43.7-35.2,72.4-77.6,86.3c-7,2.3-14.3,3.2-21.6,4.1
		c-6,0-12,0-18,0c-2.5-0.3-5-0.6-7.4-1c-15.1-2.4-29.2-7.5-42-15.7c-1.4-0.9-2.6-1-4.2-0.5c-11.1,3.6-22.2,7.1-33.3,10.7
		c-1.7,0.5-3.4,1.1-5.1,1.6c-1.2,0.4-1.6-0.1-1.2-1.3c0.2-0.6,0.4-1.2,0.6-1.8c3.8-11.3,7.5-22.6,11.5-33.9c0.9-2.5,0.6-4.3-0.9-6.5
		c-14.5-21.5-20.5-45.1-18.4-70.9c1.4-17.5,6.9-33.7,16.2-48.5c23.3-37.4,67.4-58.8,112.8-50c43.7,8.5,72.3,35,86.1,77.3
		C236.8,105.1,237.8,112.5,238.7,119.9z M65.5,97.2c-0.1,10.7,2.6,18.3,6.5,25.6c5.2,9.6,11.9,18.1,18.9,26.4
		c16.7,19.8,37.7,32.7,62.7,39.2c6.6,1.7,13.2,2.6,19.8,0.3c15.9-5.4,20.8-13.1,21.3-27.1c0.1-2-0.8-3.4-2.6-4.3
		c-8.2-4-16.3-8.2-24.7-11.9c-4.1-1.8-6.3-1.1-8.9,2.5c-2.1,2.8-4.1,5.7-6.3,8.4c-3.7,4.7-5.9,5.3-11.5,3c-18-7.4-31.4-20-41.5-36.4
		c-2.1-3.4-2-5,0.6-8.1c2-2.4,4.2-4.7,6.2-7.1c2-2.4,3.3-5.1,2-8.3c-3.4-8.2-6.9-16.5-10.3-24.7c-1.4-3.5-3.6-5.3-7.5-5
		c-1.5,0.1-3,0-4.5,0c-4.1,0.1-7.5,1.8-10.4,4.8C68.7,81.5,65.5,89.9,65.5,97.2z"/>
</g>
</svg>
